HIERARCHY
ROOT HumanoidRootPart
{
	OFFSET 0.000000 1.000000 0.000000
	CHANNELS 6 Xposition Yposition Zposition Zrotation Yrotation Xrotation
	JOINT Torso
	{
		OFFSET 0.000000 0.000000 0.000000
		CHANNELS 3 Zrotation Yrotation Xrotation
		JOINT Head
		{
			OFFSET 0.000000 2.000000 0.000000
			CHANNELS 3 Zrotation Yrotation Xrotation
			End Site
			{
				OFFSET 0.0 0.0 0.0
			}
		}
		JOINT Right Arm
		{
			OFFSET 1.500000 2.000000 0.000000
			CHANNELS 3 Zrotation Yrotation Xrotation
			End Site
			{
				OFFSET 0.0 0.0 0.0
			}
		}
		JOINT Left Arm
		{
			OFFSET -1.500000 2.000000 0.000000
			CHANNELS 3 Zrotation Yrotation Xrotation
			End Site
			{
				OFFSET 0.0 0.0 0.0
			}
		}
		JOINT Right Leg
		{
			OFFSET 0.500000 1.000000 0.000000
			CHANNELS 3 Zrotation Yrotation Xrotation
			End Site
			{
				OFFSET 0.0 0.0 0.0
			}
		}
		JOINT Left Leg
		{
			OFFSET -0.500000 1.000000 0.000000
			CHANNELS 3 Zrotation Yrotation Xrotation
			End Site
			{
				OFFSET 0.0 0.0 0.0
			}
		}
	}
}
MOTION
Frames: 32
Frame Time: 0.033333
0.000000 1.000000 0.000000 0.000000 0.000000 0.000000 0.000000 0.000000 0.000000 0.000000 0.000000 0.000000 0.000000 0.000000 -0.000000 0.000000 0.000000 0.000000 0.000000 0.000000 0.000000 0.000000 0.000000 -0.000000
0.000000 1.001045 0.000000 0.000000 0.000000 0.000000 0.001045 0.000000 0.002091 0.000000 0.000000 0.001047 0.000000 0.000000 -0.003136 0.000000 0.000000 0.003136 0.000000 0.000000 0.002091 0.000000 0.000000 -0.002091
0.000000 1.002079 0.000000 0.000000 0.000000 0.000000 0.002079 0.000000 0.004158 0.000000 0.000000 0.002091 0.000000 0.000000 -0.006237 0.000000 0.000000 0.006237 0.000000 0.000000 0.004158 0.000000 0.000000 -0.004158
0.000000 1.003090 0.000000 0.000000 0.000000 0.000000 0.003090 0.000000 0.006180 0.000000 0.000000 0.003129 0.000000 0.000000 -0.009271 0.000000 0.000000 0.009271 0.000000 0.000000 0.006180 0.000000 0.000000 -0.006180
0.000000 1.004067 0.000000 0.000000 0.000000 0.000000 0.004067 0.000000 0.008135 0.000000 0.000000 0.004158 0.000000 0.000000 -0.012202 0.000000 0.000000 0.012202 0.000000 0.000000 0.008135 0.000000 0.000000 -0.008135
0.000000 1.005000 0.000000 0.000000 0.000000 0.000000 0.005000 0.000000 0.010000 0.000000 0.000000 0.005176 0.000000 0.000000 -0.015000 0.000000 0.000000 0.015000 0.000000 0.000000 0.010000 0.000000 0.000000 -0.010000
0.000000 1.005878 0.000000 0.000000 0.000000 0.000000 0.005878 0.000000 0.011756 0.000000 0.000000 0.006180 0.000000 0.000000 -0.017634 0.000000 0.000000 0.017634 0.000000 0.000000 0.011756 0.000000 0.000000 -0.011756
0.000000 1.006691 0.000000 0.000000 0.000000 0.000000 0.006691 0.000000 0.013383 0.000000 0.000000 0.007167 0.000000 0.000000 -0.020074 0.000000 0.000000 0.020074 0.000000 0.000000 0.013383 0.000000 0.000000 -0.013383
0.000000 1.007431 0.000000 0.000000 0.000000 0.000000 0.007431 0.000000 0.014863 0.000000 0.000000 0.008135 0.000000 0.000000 -0.022294 0.000000 0.000000 0.022294 0.000000 0.000000 0.014863 0.000000 0.000000 -0.014863
0.000000 1.008090 0.000000 0.000000 0.000000 0.000000 0.008090 0.000000 0.016180 0.000000 0.000000 0.009080 0.000000 0.000000 -0.024271 0.000000 0.000000 0.024271 0.000000 0.000000 0.016180 0.000000 0.000000 -0.016180
0.000000 1.008660 0.000000 0.000000 0.000000 0.000000 0.008660 0.000000 0.017321 0.000000 0.000000 0.010000 0.000000 0.000000 -0.025981 0.000000 0.000000 0.025981 0.000000 0.000000 0.017321 0.000000 0.000000 -0.017321
0.000000 1.009135 0.000000 0.000000 0.000000 0.000000 0.009135 0.000000 0.018271 0.000000 0.000000 0.010893 0.000000 0.000000 -0.027406 0.000000 0.000000 0.027406 0.000000 0.000000 0.018271 0.000000 0.000000 -0.018271
0.000000 1.009511 0.000000 0.000000 0.000000 0.000000 0.009511 0.000000 0.019021 0.000000 0.000000 0.011756 0.000000 0.000000 -0.028532 0.000000 0.000000 0.028532 0.000000 0.000000 0.019021 0.000000 0.000000 -0.019021
0.000000 1.009781 0.000000 0.000000 0.000000 0.000000 0.009781 0.000000 0.019563 0.000000 0.000000 0.012586 0.000000 0.000000 -0.029344 0.000000 0.000000 0.029344 0.000000 0.000000 0.019563 0.000000 0.000000 -0.019563
0.000000 1.009945 0.000000 0.000000 0.000000 0.000000 0.009945 0.000000 0.019890 0.000000 0.000000 0.013383 0.000000 0.000000 -0.029836 0.000000 0.000000 0.029836 0.000000 0.000000 0.019890 0.000000 0.000000 -0.019890
0.000000 1.010000 0.000000 0.000000 0.000000 0.000000 0.010000 0.000000 0.020000 0.000000 0.000000 0.014142 0.000000 0.000000 -0.030000 0.000000 0.000000 0.030000 0.000000 0.000000 0.020000 0.000000 0.000000 -0.020000
0.000000 1.009945 0.000000 0.000000 0.000000 0.000000 0.009945 0.000000 0.019890 0.000000 0.000000 0.014863 0.000000 0.000000 -0.029836 0.000000 0.000000 0.029836 0.000000 0.000000 0.019890 0.000000 0.000000 -0.019890
0.000000 1.009781 0.000000 0.000000 0.000000 0.000000 0.009781 0.000000 0.019563 0.000000 0.000000 0.015543 0.000000 0.000000 -0.029344 0.000000 0.000000 0.029344 0.000000 0.000000 0.019563 0.000000 0.000000 -0.019563
0.000000 1.009511 0.000000 0.000000 0.000000 0.000000 0.009511 0.000000 0.019021 0.000000 0.000000 0.016180 0.000000 0.000000 -0.028532 0.000000 0.000000 0.028532 0.000000 0.000000 0.019021 0.000000 0.000000 -0.019021
0.000000 1.009135 0.000000 0.000000 0.000000 0.000000 0.009135 0.000000 0.018271 0.000000 0.000000 0.016773 0.000000 0.000000 -0.027406 0.000000 0.000000 0.027406 0.000000 0.000000 0.018271 0.000000 0.000000 -0.018271
0.000000 1.008660 0.000000 0.000000 0.000000 0.000000 0.008660 0.000000 0.017321 0.000000 0.000000 0.017321 0.000000 0.000000 -0.025981 0.000000 0.000000 0.025981 0.000000 0.000000 0.017321 0.000000 0.000000 -0.017321
0.000000 1.008090 0.000000 0.000000 0.000000 0.000000 0.008090 0.000000 0.016180 0.000000 0.000000 0.017820 0.000000 0.000000 -0.024271 0.000000 0.000000 0.024271 0.000000 0.000000 0.016180 0.000000 0.000000 -0.016180
0.000000 1.007431 0.000000 0.000000 0.000000 0.000000 0.007431 0.000000 0.014863 0.000000 0.000000 0.018271 0.000000 0.000000 -0.022294 0.000000 0.000000 0.022294 0.000000 0.000000 0.014863 0.000000 0.000000 -0.014863
0.000000 1.006691 0.000000 0.000000 0.000000 0.000000 0.006691 0.000000 0.013383 0.000000 0.000000 0.018672 0.000000 0.000000 -0.020074 0.000000 0.000000 0.020074 0.000000 0.000000 0.013383 0.000000 0.000000 -0.013383
0.000000 1.005878 0.000000 0.000000 0.000000 0.000000 0.005878 0.000000 0.011756 0.000000 0.000000 0.019021 0.000000 0.000000 -0.017634 0.000000 0.000000 0.017634 0.000000 0.000000 0.011756 0.000000 0.000000 -0.011756
0.000000 1.005000 0.000000 0.000000 0.000000 0.000000 0.005000 0.000000 0.010000 0.000000 0.000000 0.019319 0.000000 0.000000 -0.015000 0.000000 0.000000 0.015000 0.000000 0.000000 0.010000 0.000000 0.000000 -0.010000
0.000000 1.004067 0.000000 0.000000 0.000000 0.000000 0.004067 0.000000 0.008135 0.000000 0.000000 0.019563 0.000000 0.000000 -0.012202 0.000000 0.000000 0.012202 0.000000 0.000000 0.008135 0.000000 0.000000 -0.008135
0.000000 1.003090 0.000000 0.000000 0.000000 0.000000 0.003090 0.000000 0.006180 0.000000 0.000000 0.019754 0.000000 0.000000 -0.009271 0.000000 0.000000 0.009271 0.000000 0.000000 0.006180 0.000000 0.000000 -0.006180
0.000000 1.002079 0.000000 0.000000 0.000000 0.000000 0.002079 0.000000 0.004158 0.000000 0.000000 0.019890 0.000000 0.000000 -0.006237 0.000000 0.000000 0.006237 0.000000 0.000000 0.004158 0.000000 0.000000 -0.004158
0.000000 1.001045 0.000000 0.000000 0.000000 0.000000 0.001045 0.000000 0.002091 0.000000 0.000000 0.019973 0.000000 0.000000 -0.003136 0.000000 0.000000 0.003136 0.000000 0.000000 0.002091 0.000000 0.000000 -0.002091
0.000000 1.000000 0.000000 0.000000 0.000000 0.000000 0.000000 0.000000 0.000000 0.000000 0.000000 0.020000 0.000000 0.000000 -0.000000 0.000000 0.000000 0.000000 0.000000 0.000000 0.000000 0.000000 0.000000 -0.000000
0.000000 0.998955 0.000000 0.000000 0.000000 0.000000 -0.001045 0.000000 -0.002091 0.000000 0.000000 0.019973 0.000000 0.000000 0.003136 0.000000 0.000000 -0.003136 0.000000 0.000000 -0.002091 0.000000 0.000000 0.002091
